<mxfile host="app.diagrams.net" agent="Mozilla/5.0 (Windows NT 10.0; Win64; x64; rv:128.0) Gecko/20100101 Firefox/128.0" version="24.7.6">
  <diagram name="Page-1" id="NWfVcEyX7WPIl7G1nO2M">
    <mxGraphModel dx="2260" dy="589" grid="1" gridSize="10" guides="1" tooltips="1" connect="1" arrows="1" fold="1" page="1" pageScale="1" pageWidth="827" pageHeight="1169" math="0" shadow="0">
      <root>
        <mxCell id="0" />
        <mxCell id="1" parent="0" />
        <mxCell id="8taAzl_GxbEp-pjDoAud-1" value="&lt;div style=&quot;font-size: 13px;&quot;&gt;&lt;font style=&quot;font-size: 15px;&quot;&gt;Tecniche di Data Visualization&lt;br&gt;&lt;/font&gt;&lt;/div&gt;" style="ellipse;whiteSpace=wrap;html=1;" parent="1" vertex="1">
          <mxGeometry x="160" y="520" width="120" height="80" as="geometry" />
        </mxCell>
        <mxCell id="8taAzl_GxbEp-pjDoAud-9" style="edgeStyle=orthogonalEdgeStyle;rounded=0;orthogonalLoop=1;jettySize=auto;html=1;exitX=0.5;exitY=1;exitDx=0;exitDy=0;entryX=0.5;entryY=0;entryDx=0;entryDy=0;" parent="1" source="8taAzl_GxbEp-pjDoAud-2" target="8taAzl_GxbEp-pjDoAud-4" edge="1">
          <mxGeometry relative="1" as="geometry" />
        </mxCell>
        <mxCell id="DTEkQCMT2aQcSbh0orVR-10" style="edgeStyle=orthogonalEdgeStyle;rounded=0;orthogonalLoop=1;jettySize=auto;html=1;exitX=0;exitY=0.5;exitDx=0;exitDy=0;entryX=0;entryY=0.5;entryDx=0;entryDy=0;" edge="1" parent="1" source="8taAzl_GxbEp-pjDoAud-2" target="8taAzl_GxbEp-pjDoAud-1">
          <mxGeometry relative="1" as="geometry" />
        </mxCell>
        <mxCell id="DTEkQCMT2aQcSbh0orVR-11" style="edgeStyle=orthogonalEdgeStyle;rounded=0;orthogonalLoop=1;jettySize=auto;html=1;exitX=0;exitY=0.5;exitDx=0;exitDy=0;entryX=0;entryY=0.5;entryDx=0;entryDy=0;" edge="1" parent="1" source="8taAzl_GxbEp-pjDoAud-2" target="DTEkQCMT2aQcSbh0orVR-3">
          <mxGeometry relative="1" as="geometry">
            <Array as="points">
              <mxPoint x="140" y="200" />
              <mxPoint x="140" y="680" />
            </Array>
          </mxGeometry>
        </mxCell>
        <mxCell id="DTEkQCMT2aQcSbh0orVR-12" style="edgeStyle=orthogonalEdgeStyle;rounded=0;orthogonalLoop=1;jettySize=auto;html=1;exitX=0;exitY=0.5;exitDx=0;exitDy=0;entryX=0;entryY=0.5;entryDx=0;entryDy=0;" edge="1" parent="1" source="8taAzl_GxbEp-pjDoAud-2" target="8taAzl_GxbEp-pjDoAud-6">
          <mxGeometry relative="1" as="geometry">
            <Array as="points">
              <mxPoint x="140" y="200" />
              <mxPoint x="140" y="800" />
            </Array>
          </mxGeometry>
        </mxCell>
        <mxCell id="8taAzl_GxbEp-pjDoAud-2" value="&lt;font style=&quot;font-size: 15px;&quot;&gt;Gamma di colori&lt;/font&gt;" style="ellipse;whiteSpace=wrap;html=1;" parent="1" vertex="1">
          <mxGeometry x="320" y="160" width="120" height="80" as="geometry" />
        </mxCell>
        <mxCell id="DTEkQCMT2aQcSbh0orVR-7" style="rounded=0;orthogonalLoop=1;jettySize=auto;html=1;exitX=0;exitY=0.5;exitDx=0;exitDy=0;entryX=1;entryY=0.5;entryDx=0;entryDy=0;" edge="1" parent="1" source="8taAzl_GxbEp-pjDoAud-3" target="DTEkQCMT2aQcSbh0orVR-3">
          <mxGeometry relative="1" as="geometry" />
        </mxCell>
        <mxCell id="DTEkQCMT2aQcSbh0orVR-8" style="rounded=0;orthogonalLoop=1;jettySize=auto;html=1;exitX=0.5;exitY=1;exitDx=0;exitDy=0;entryX=0.5;entryY=0;entryDx=0;entryDy=0;" edge="1" parent="1" source="8taAzl_GxbEp-pjDoAud-3" target="DTEkQCMT2aQcSbh0orVR-4">
          <mxGeometry relative="1" as="geometry" />
        </mxCell>
        <mxCell id="8taAzl_GxbEp-pjDoAud-3" value="&lt;font style=&quot;font-size: 15px;&quot;&gt;Simmetria nel design&lt;br&gt;&lt;/font&gt;" style="ellipse;whiteSpace=wrap;html=1;" parent="1" vertex="1">
          <mxGeometry x="480" y="520" width="120" height="80" as="geometry" />
        </mxCell>
        <mxCell id="8taAzl_GxbEp-pjDoAud-10" style="edgeStyle=orthogonalEdgeStyle;rounded=0;orthogonalLoop=1;jettySize=auto;html=1;exitX=0.5;exitY=1;exitDx=0;exitDy=0;entryX=0.5;entryY=0;entryDx=0;entryDy=0;" parent="1" source="8taAzl_GxbEp-pjDoAud-4" target="8taAzl_GxbEp-pjDoAud-5" edge="1">
          <mxGeometry relative="1" as="geometry" />
        </mxCell>
        <mxCell id="8taAzl_GxbEp-pjDoAud-4" value="&lt;font style=&quot;font-size: 15px;&quot;&gt;Posizione degli elementi (layout)&lt;br&gt;&lt;/font&gt;" style="ellipse;whiteSpace=wrap;html=1;" parent="1" vertex="1">
          <mxGeometry x="320" y="280" width="120" height="80" as="geometry" />
        </mxCell>
        <mxCell id="8taAzl_GxbEp-pjDoAud-11" style="edgeStyle=orthogonalEdgeStyle;rounded=0;orthogonalLoop=1;jettySize=auto;html=1;exitX=0.5;exitY=1;exitDx=0;exitDy=0;entryX=0.5;entryY=0;entryDx=0;entryDy=0;" parent="1" source="8taAzl_GxbEp-pjDoAud-5" target="8taAzl_GxbEp-pjDoAud-6" edge="1">
          <mxGeometry relative="1" as="geometry" />
        </mxCell>
        <mxCell id="DTEkQCMT2aQcSbh0orVR-5" style="rounded=0;orthogonalLoop=1;jettySize=auto;html=1;exitX=0;exitY=0.5;exitDx=0;exitDy=0;entryX=1;entryY=0;entryDx=0;entryDy=0;" edge="1" parent="1" source="8taAzl_GxbEp-pjDoAud-4" target="DTEkQCMT2aQcSbh0orVR-3">
          <mxGeometry relative="1" as="geometry" />
        </mxCell>
        <mxCell id="DTEkQCMT2aQcSbh0orVR-6" style="rounded=0;orthogonalLoop=1;jettySize=auto;html=1;exitX=1;exitY=0.5;exitDx=0;exitDy=0;entryX=0;entryY=0;entryDx=0;entryDy=0;" edge="1" parent="1" source="8taAzl_GxbEp-pjDoAud-4" target="DTEkQCMT2aQcSbh0orVR-4">
          <mxGeometry relative="1" as="geometry" />
        </mxCell>
        <mxCell id="8taAzl_GxbEp-pjDoAud-5" value="&lt;font style=&quot;font-size: 15px;&quot;&gt;Grandezza degli elementi&lt;/font&gt;" style="ellipse;whiteSpace=wrap;html=1;" parent="1" vertex="1">
          <mxGeometry x="320" y="400" width="120" height="80" as="geometry" />
        </mxCell>
        <mxCell id="8taAzl_GxbEp-pjDoAud-6" value="&lt;font style=&quot;font-size: 15px;&quot;&gt;Caratteri tipografici&lt;/font&gt;" style="ellipse;whiteSpace=wrap;html=1;" parent="1" vertex="1">
          <mxGeometry x="320" y="760" width="120" height="80" as="geometry" />
        </mxCell>
        <mxCell id="8taAzl_GxbEp-pjDoAud-15" value="Livello 1" style="text;html=1;align=center;verticalAlign=middle;resizable=0;points=[];autosize=1;strokeColor=none;fillColor=none;fontSize=15;fontStyle=1" parent="1" vertex="1">
          <mxGeometry x="660" y="188" width="80" height="30" as="geometry" />
        </mxCell>
        <mxCell id="8taAzl_GxbEp-pjDoAud-16" value="Livello 2" style="text;html=1;align=center;verticalAlign=middle;resizable=0;points=[];autosize=1;strokeColor=none;fillColor=none;fontSize=15;fontStyle=1" parent="1" vertex="1">
          <mxGeometry x="660" y="305" width="80" height="30" as="geometry" />
        </mxCell>
        <mxCell id="8taAzl_GxbEp-pjDoAud-18" value="Livello 3" style="text;html=1;align=center;verticalAlign=middle;resizable=0;points=[];autosize=1;strokeColor=none;fillColor=none;fontSize=15;fontStyle=1" parent="1" vertex="1">
          <mxGeometry x="660" y="425" width="80" height="30" as="geometry" />
        </mxCell>
        <mxCell id="8taAzl_GxbEp-pjDoAud-19" value="Livello 4" style="text;html=1;align=center;verticalAlign=middle;resizable=0;points=[];autosize=1;strokeColor=none;fillColor=none;fontSize=15;fontStyle=1" parent="1" vertex="1">
          <mxGeometry x="660" y="545" width="80" height="30" as="geometry" />
        </mxCell>
        <mxCell id="8taAzl_GxbEp-pjDoAud-20" value="Meno importante" style="text;html=1;align=center;verticalAlign=middle;resizable=0;points=[];autosize=1;strokeColor=none;fillColor=none;fontSize=15;" parent="1" vertex="1">
          <mxGeometry x="630" y="130" width="140" height="30" as="geometry" />
        </mxCell>
        <mxCell id="8taAzl_GxbEp-pjDoAud-21" value="Più importante" style="text;html=1;align=center;verticalAlign=middle;resizable=0;points=[];autosize=1;strokeColor=none;fillColor=none;fontSize=15;" parent="1" vertex="1">
          <mxGeometry x="640" y="840" width="120" height="30" as="geometry" />
        </mxCell>
        <mxCell id="8taAzl_GxbEp-pjDoAud-22" value="&lt;div&gt;&lt;b&gt;Legenda&lt;/b&gt;&lt;/div&gt;&lt;div&gt;A → B: A dipende da B&lt;br&gt;&lt;/div&gt;" style="text;html=1;align=left;verticalAlign=middle;whiteSpace=wrap;rounded=0;fillColor=#f5f5f5;fontColor=#333333;strokeColor=#666666;" parent="1" vertex="1">
          <mxGeometry x="-50" y="470" width="130" height="60" as="geometry" />
        </mxCell>
        <mxCell id="DTEkQCMT2aQcSbh0orVR-1" value="Livello 5" style="text;html=1;align=center;verticalAlign=middle;resizable=0;points=[];autosize=1;strokeColor=none;fillColor=none;fontSize=15;fontStyle=1" vertex="1" parent="1">
          <mxGeometry x="660" y="665" width="80" height="30" as="geometry" />
        </mxCell>
        <mxCell id="DTEkQCMT2aQcSbh0orVR-2" value="Livello 6" style="text;html=1;align=center;verticalAlign=middle;resizable=0;points=[];autosize=1;strokeColor=none;fillColor=none;fontSize=15;fontStyle=1" vertex="1" parent="1">
          <mxGeometry x="660" y="785" width="80" height="30" as="geometry" />
        </mxCell>
        <mxCell id="DTEkQCMT2aQcSbh0orVR-3" value="&lt;font style=&quot;font-size: 15px;&quot;&gt;Elementi grafici&lt;/font&gt;" style="ellipse;whiteSpace=wrap;html=1;" vertex="1" parent="1">
          <mxGeometry x="200" y="640" width="120" height="80" as="geometry" />
        </mxCell>
        <mxCell id="DTEkQCMT2aQcSbh0orVR-9" style="rounded=0;orthogonalLoop=1;jettySize=auto;html=1;exitX=0;exitY=1;exitDx=0;exitDy=0;entryX=1;entryY=0;entryDx=0;entryDy=0;" edge="1" parent="1" source="DTEkQCMT2aQcSbh0orVR-4" target="8taAzl_GxbEp-pjDoAud-6">
          <mxGeometry relative="1" as="geometry" />
        </mxCell>
        <mxCell id="DTEkQCMT2aQcSbh0orVR-4" value="&lt;font style=&quot;font-size: 15px;&quot;&gt;Blocchi di testo&lt;/font&gt;" style="ellipse;whiteSpace=wrap;html=1;" vertex="1" parent="1">
          <mxGeometry x="440" y="640" width="120" height="80" as="geometry" />
        </mxCell>
      </root>
    </mxGraphModel>
  </diagram>
</mxfile>
